<?xml version="1.0" encoding="utf-8"?>
<!-- Generator: Adobe Illustrator 21.1.0, SVG Export Plug-In . SVG Version: 6.00 Build 0)  -->
<svg version="1.1" id="Camada_1" xmlns="http://www.w3.org/2000/svg" xmlns:xlink="http://www.w3.org/1999/xlink" x="0px" y="0px"
	 viewBox="0 0 492 304.5" style="enable-background:new 0 0 492 304.5;" xml:space="preserve">
<style type="text/css">
	.st0{fill:#C03582;}
	.st1{fill:#C03681;}
	.st2{fill:#C03682;}
	.st3{fill:#C03581;}
	.st4{fill:#C03683;}
	.st5{fill:#FFFFFF;}
</style>
<path class="st0" d="M190.8,86.2c-0.2,8.5-3.2,15.3-8.7,21c-15.8,16.4-23.3,36.4-25.3,58.7c-0.5,6.1-0.6,12.2,0,18.3
	c0.5,4.6-2.9,7.5-7.5,6.7c-9.8-1.9-18.6-6.1-27.2-10.9c-17.8-10.2-32.7-23.8-44.8-40.3c-8.4-11.4-14.8-23.8-18.5-37.5
	c-1.9-7.1,2.3-10.1,8.2-9.5c17.6,1.7,34.6-1.5,50.7-8.9c9.2-4.2,17.4-10,24.8-16.9c7.6-7.2,16.6-10.1,26.8-7.4
	c11.1,2.9,17.9,10.2,20.7,21.3c0.1,0.4,0.2,0.9,0.2,1.3C190.5,83.6,190.7,85.2,190.8,86.2z"/>
<path class="st1" d="M238.6,18.7c0,2-0.6,3.7-2,5.1c-13.6,14.7-27.1,29.3-40.6,44c-1.2,1.3-1.8,1.2-2.8-0.3
	c-3-4.7-6.7-8.7-11.5-11.5c-1.4-0.9-1.7-1.5-0.3-2.8C192.7,43,204,32.6,215.2,22.3c3.4-3.1,6.7-6.3,10-9.4c2.6-2.4,5.6-2.8,8.8-1.4
	C237,12.8,238.7,15.3,238.6,18.7z"/>
<path class="st2" d="M178.6,160.8c7.8,0,13.7,5.9,13.6,13.7c0,7.7-6.1,13.7-13.7,13.7c-7.7,0-13.6-6-13.6-13.7
	C164.9,166.6,170.7,160.8,178.6,160.8z"/>
<path class="st2" d="M207.2,202.7c0,6.1-4.8,10.9-11,10.8c-6.3,0-11-4.7-10.9-10.9c0.1-6.4,4.6-11,10.8-11
	C202.5,191.7,207.3,196.4,207.2,202.7z"/>
<path class="st3" d="M440.7,203c0,5.1-3.6,8.9-8.4,8.9s-8.4-3.9-8.4-9c0-5,3.7-9,8.5-8.9C437.1,194,440.7,197.9,440.7,203z"/>
<path class="st4" d="M222.6,176.6c4.3,0,7.7,3.5,7.7,7.8s-3.4,7.7-7.7,7.7c-4.4,0-7.9-3.5-7.8-7.9
	C214.8,179.9,218.3,176.6,222.6,176.6z"/>
<path class="st5" d="M106.1,111.9c-5.2,1.4-9.8,3-14.6,4.1c-4.1,0.9-8.2,1.2-12.3,1.7c-1.2,0.2-1.8-0.3-2.3-1.4
	c-1.2-2.8-2.5-5.6-3.7-8.4c-1.2-2.9-1.2-3,1.9-3c13.2-0.1,26-2.2,38.4-6.5c8.2-2.9,16-6.5,23.1-11.5c2.2-1.6,3.3-1.2,5.1,0.6
	c7,7.2,14.1,14.2,21.2,21.2c1.2,1.1,1.1,1.8,0.3,3.1c-8.7,12.7-14.2,26.8-16.9,42c-1.2,7-1.9,14.1-1.8,21.2c0,2-0.6,2.1-2.3,1.6
	c-5-1.3-8.1-3.7-7.8-9.6c0.2-3.5-0.1-7-0.1-10.5c0-0.6,0.3-1.2-0.5-2.1c-1.9,3.3-3.8,6.4-5.6,9.6c-2.6,4.7-2.5,4.7-7,1.7
	c-3-2.1-5.9-4.5-9-6.5c-2.3-1.5-2.2-3-1.2-5.2c3.8-8.2,8.2-16,13.2-23.5c0.6-0.9,1.5-1.8,1.6-3.2c-1.2,0.3-1.9,1.1-2.6,1.8
	c-6.7,6.4-14,12.1-21.7,17.4c-1.5,1-2.4,1-3.6-0.3c-4.4-4.7-8.4-9.6-12.2-14.8c-1.1-1.5-0.8-2.1,0.8-3c7-4,13.1-9.2,18.5-15.1
	C105.5,112.9,105.7,112.6,106.1,111.9z"/>
<g>
	<path class="st2" d="M85.6,196.4c-0.1-1.4-0.7-1.9-2-1.9c-3.7,0-7.5,0.1-11.3-0.1c-2.4-0.1-3.3,0.8-4,2.9
		c-2.7,7.8-5.5,15.6-8.3,23.4c-1.4,4-2.9,8-4.7,12.8c-0.7-1.6-1-2.4-1.4-3.1c-3.9-11-8-22-11.8-33c-0.7-2.2-1.8-3.1-4.2-2.9
		c-2.4,0.3-4.9,0.1-7.3,0.1c-6,0-5.9,0-6.3,5.9c-0.7,10.3-1.7,20.5-2.5,30.7c-0.8,10-1.5,19.9-2.4,29.9c-0.2,2.1,0.3,3,2.6,2.8
		c2.9-0.2,5.9,0,8.9,0c3.6,0,3.6,0,3.8-3.5c0.5-8.6,1-17.1,1.8-25.6c0.3-3.4,0-6.9,1.2-10.8c3.7,11.3,7.3,22.2,10.8,33
		c2.2,6.8,2.2,6.8,9.4,6.5c1.5-0.1,2.2-0.7,2.6-2.1c3.6-11,7.1-22,10.7-32.9c0.4-1.3,0.6-2.7,1.8-4c0.2,1.2,0.3,2.1,0.4,3
		c0.8,11.3,1.7,22.6,2.4,33.9c0.1,1.9,0.8,2.5,2.6,2.4c3.2-0.1,6.4-0.2,9.5,0c2.4,0.1,3.3-0.4,3.1-3.1
		C89.1,239.3,87.3,217.8,85.6,196.4z"/>
	<path class="st2" d="M228.1,224.2c-0.1,0.1-0.3,0-0.5,0c-0.4-3.7-0.4-3.7-4.4-3.7c-2.6,0-5.1,0.1-7.6,0c-1.8,0-2.4,0.6-2.4,2.4
		c0.1,20,0,40.1,0,60.2c0,1.8,0.7,2.4,2.4,2.3c2.6-0.1,5.2,0,7.8,0c4.3,0,4.3,0,4.1-4.4c-0.3-6.7-0.2-13.4,0.1-20.6
		c0.8,0.6,1.2,0.8,1.7,1c7.7,5.3,18.1,4.6,24.5-1.9c6.5-6.5,8.2-14.6,6.3-23.4C256.4,218.9,238.4,214.4,228.1,224.2z M236,251.9
		c-5.1,0-8.9-4.4-8.9-9.9c0.2-5.8,4-9.7,9.4-9.6c5.3,0.1,9,4.3,8.9,10.1C245.3,248,241.3,251.9,236,251.9z"/>
	<path class="st2" d="M408.3,221.6c-7.8-4-15.1-3.1-22,3c-0.4-4-0.4-4-4.2-4c-2.6,0-5.2,0.1-7.8,0c-1.7,0-2.4,0.5-2.4,2.3
		c0,20.2,0,40.3,0,60.5c0,1.4,0.3,2.1,1.9,2.1c3.5-0.1,6.9-0.1,10.3,0c1.5,0,2.1-0.6,2-2.1c-0.1-1.4,0-2.9,0-4.3
		c0-6.1,0-12.1,0-18.3c1.3,0.1,1.9,0.8,2.6,1.3c6.3,4.2,15.9,3.9,21.8-0.8c8.1-6.5,9.8-15.2,8.2-24.8
		C417.6,230,414.3,224.7,408.3,221.6z M394.7,251.9c-5.2,0-8.8-4.3-8.7-10.2c0.1-5.5,3.8-9.3,9-9.3c5.4,0,9.1,4,9,9.8
		C404,247.8,400,251.9,394.7,251.9z"/>
	<path class="st2" d="M332.7,224.5c-0.4-3.9-0.4-3.9-4-4.1c-2.6,0-5.1,0.2-7.6,0c-2.2-0.1-2.7,0.7-2.7,2.8c0,13.7,0,27.4,0,41.1
		c0,6.2,0,12.3-0.1,18.4c0,2.2,0.7,2.8,2.8,2.7c3-0.2,5.9-0.2,8.9,0c2.1,0.2,2.7-0.6,2.6-2.6c-0.1-3,0-5.9,0-8.9c0-4.4,0-8.7,0-13.4
		c1,0.6,1.6,0.9,2.2,1.3c7.5,5,17.8,4.2,24.1-2.2c6-6,7.7-13.6,6.5-21.7C362.9,220.4,344.6,213.6,332.7,224.5z M341.5,252
		c-5.4-0.1-9.1-4.1-9.1-9.9c0-5.7,3.6-9.7,8.9-9.7c5.3-0.1,9.1,3.9,9.2,9.5C350.6,247.6,346.7,251.9,341.5,252z"/>
	<path class="st2" d="M139.2,220.5c-3.1,0.1-6.1,0.1-9.2,0c-2.1,0-3.4,0.5-2.9,3.4c-1.1-0.6-1.6-1-1.9-1.2
		c-8.8-5.9-20.2-4.1-26.4,4.5c-5.6,7.7-6.2,16.4-2.8,25.1c5.1,13.1,19.5,15.8,28.4,9.5c0.8-0.7,1.4-1.8,2.7-1.9
		c0.3,3.8,0.3,3.8,4.1,3.8c2.6,0,5.2-0.1,7.8,0c1.6,0,2.3-0.6,2.3-2.2c0-13,0-25.9,0-38.9C141.3,221,140.7,220.5,139.2,220.5z
		 M117.8,251.9c-5.2-0.1-8.8-4.2-8.7-9.9c0.1-5.6,4-9.7,9.1-9.6c5.4,0.1,9.2,4.4,9,10.3C127.1,248.1,123.1,252.1,117.8,251.9z"/>
	<path class="st2" d="M285.7,219.4c-16.8,0.9-27.2,19.1-19.1,33.9c4.6,8.4,12.2,11.6,21.5,11.6c0.6,0,1.3,0,1.8,0.1
		c9-0.5,16.1-4.1,20.1-12.3c4.3-8.8,3.4-17.4-2.8-25C301.7,220.9,294.1,219,285.7,219.4z M288.2,251.9c-5.3,0-9.1-3.9-9.1-9.5
		c0-5.7,3.9-10,9.1-10s9.3,4.4,9.2,9.9C297.3,247.9,293.5,251.8,288.2,251.9z"/>
	<path class="st2" d="M470.2,236.9c-1.9-0.7-3.8-1.3-5.6-2c-1.2-0.5-2.2-1.3-1.9-2.9c0.3-1.5,1.5-1.6,2.7-1.7c3-0.2,5.8,0.3,8.4,1.7
		c1.5,0.8,2.3,0.4,2.9-1.1c0.8-2.1,1.9-4.1,2.9-6.1c0.8-1.6,0.5-2.4-1.2-3.1c-6.5-2.6-13.1-3.3-19.8-1.2c-5.5,1.7-8.8,5.4-9.5,11.2
		c-0.6,5.6,1.9,9.6,6.6,12.6c2.7,1.7,5.8,2.4,8.5,4c1.2,0.7,2.3,1.5,1.8,3.2c-0.5,1.5-1.7,1.9-3.2,2c-3.3,0.2-6-1.3-8.4-3.2
		c-2.1-1.7-3.1-1.2-4.1,1.1c-0.9,2.1-2.1,4-3.3,5.9c-1,1.4-0.6,2.2,0.6,3.1c4.5,3.1,9.4,4.8,15.7,4.4c0.5,0,1.8,0.2,3,0.2
		c5.4-0.8,10.5-2.2,13.2-7.6C483.8,248.7,479.9,240.4,470.2,236.9z"/>
	<path class="st2" d="M184,221c-6-3-12.2-2-17.1,2.7c-0.6,0.6-1.1,1.4-1.6,2.1c-0.2-0.1-0.3-0.2-0.8-0.3c0-0.7-0.2-1.4-0.1-2
		c0.4-2.4-0.7-3-3-2.9c-3,0.1-5.9,0.1-8.9,0c-1.5,0-2.2,0.5-2.2,2.2c0.1,13,0.1,25.9,0,38.9c0,1.7,0.7,2.1,2.3,2.1
		c3.1-0.1,6.3-0.1,9.4,0c2,0,2.5-0.6,2.5-2.5c-0.1-6.2-0.1-12.4,0-18.6c0.1-8.5,6-12.2,13.6-8.6c1.4,0.6,2.1,0.5,2.7-0.9
		c1.4-3.1,2.8-6.2,4.3-9.3C185.8,222.4,185.5,221.7,184,221z"/>
	<path class="st2" d="M201.9,220.5c-3.3,0.1-6.7,0.1-10,0c-1.6,0-2.2,0.6-2.2,2.2c0,13,0,26.1,0,39.1c0,1.5,0.5,2,2,2
		c3.1-0.1,6.3-0.2,9.4,0c2.2,0.1,2.8-0.7,2.8-2.8c-0.1-6.3,0-12.6,0-18.9c0-6.4,0-12.9,0.1-19.4C204,221.2,203.6,220.5,201.9,220.5z
		"/>
	<path class="st2" d="M437,220.5c-3.2,0.1-6.5,0-9.7,0c-1.6,0-2.3,0.5-2.3,2.2c0.1,13,0,26.1,0,39.1c-0.1,1.5,0.5,2,2,2
		c3.2-0.1,6.5-0.2,9.7,0c2.1,0.2,2.5-0.7,2.5-2.6c-0.1-6.3,0-12.6,0-18.9c0-6.5,0-13,0.1-19.4C439.3,221.1,438.7,220.5,437,220.5z"
		/>
</g>
</svg>
